<?xml version="1.0" encoding="UTF-8" standalone="no"?>
<!DOCTYPE svg PUBLIC "-//W3C//DTD SVG 1.1//EN"
 "http://www.w3.org/Graphics/SVG/1.1/DTD/svg11.dtd">
<!-- Generated by graphviz version 10.0.1 (20240210.2158)
 -->
<!-- Pages: 1 -->
<svg width="1301pt" height="548pt"
 viewBox="0.00 0.00 1300.88 548.00" xmlns="http://www.w3.org/2000/svg" xmlns:xlink="http://www.w3.org/1999/xlink">
<g id="graph0" class="graph" transform="scale(1 1) rotate(0) translate(4 544)">
<polygon fill="white" stroke="none" points="-4,4 -4,-544 1296.88,-544 1296.88,4 -4,4"/>
<!-- 0 -->
<g id="node1" class="node">
<title>0</title>
<polygon fill="none" stroke="black" points="584.38,-540 481.38,-540 481.38,-504 584.38,-504 584.38,-540"/>
<text text-anchor="middle" x="532.88" y="-516.95" font-family="Times,serif" font-size="14.00">solana&#45;validator</text>
</g>
<!-- 4 -->
<g id="node2" class="node">
<title>4</title>
<polygon fill="none" stroke="black" points="758,-396 679.75,-396 679.75,-360 758,-360 758,-396"/>
<text text-anchor="middle" x="718.88" y="-372.95" font-family="Times,serif" font-size="14.00">solana&#45;core</text>
</g>
<!-- 0&#45;&gt;4 -->
<g id="edge1" class="edge">
<title>0&#45;&gt;4</title>
<path fill="none" stroke="black" d="M584.69,-507.42C609.65,-499.02 638.85,-486.28 660.88,-468 680.99,-451.3 696.61,-425.81 706.55,-406.38"/>
<polygon fill="black" stroke="black" points="709.56,-408.18 710.81,-397.66 703.28,-405.11 709.56,-408.18"/>
</g>
<!-- 5 -->
<g id="node3" class="node">
<title>5</title>
<polygon fill="none" stroke="black" points="159.88,-396 23.88,-396 23.88,-360 159.88,-360 159.88,-396"/>
<text text-anchor="middle" x="91.88" y="-372.95" font-family="Times,serif" font-size="14.00">solana&#45;download&#45;utils</text>
</g>
<!-- 0&#45;&gt;5 -->
<g id="edge2" class="edge">
<title>0&#45;&gt;5</title>
<path fill="none" stroke="black" d="M481,-520.99C414.2,-519.15 295.9,-509.59 204.88,-468 182.21,-457.64 181.37,-447.53 161.88,-432 149.83,-422.41 136.4,-412.14 124.54,-403.21"/>
<polygon fill="black" stroke="black" points="126.74,-400.49 116.64,-397.29 122.54,-406.09 126.74,-400.49"/>
</g>
<!-- 8 -->
<g id="node4" class="node">
<title>8</title>
<polygon fill="none" stroke="black" points="153.13,-468 30.63,-468 30.63,-432 153.13,-432 153.13,-468"/>
<text text-anchor="middle" x="91.88" y="-444.95" font-family="Times,serif" font-size="14.00">solana&#45;genesis&#45;utils</text>
</g>
<!-- 0&#45;&gt;8 -->
<g id="edge3" class="edge">
<title>0&#45;&gt;8</title>
<path fill="none" stroke="black" d="M481.14,-514.82C410.06,-506.03 278.3,-488.66 166.88,-468 166.2,-467.87 165.52,-467.75 164.84,-467.62"/>
<polygon fill="black" stroke="black" points="165.57,-464.2 155.08,-465.69 164.21,-471.06 165.57,-464.2"/>
</g>
<!-- 10 -->
<g id="node5" class="node">
<title>10</title>
<polygon fill="none" stroke="black" points="504.38,-324 323.38,-324 323.38,-288 504.38,-288 504.38,-324"/>
<text text-anchor="middle" x="413.88" y="-300.95" font-family="Times,serif" font-size="14.00">solana&#45;geyser&#45;plugin&#45;manager</text>
</g>
<!-- 0&#45;&gt;10 -->
<g id="edge4" class="edge">
<title>0&#45;&gt;10</title>
<path fill="none" stroke="black" d="M500.35,-503.56C486.4,-494.6 471.01,-482.5 460.88,-468 432.37,-427.23 420.98,-369.16 416.56,-335.05"/>
<polygon fill="black" stroke="black" points="420.08,-335.08 415.44,-325.56 413.13,-335.89 420.08,-335.08"/>
</g>
<!-- 11 -->
<g id="node6" class="node">
<title>11</title>
<polygon fill="none" stroke="black" points="916.63,-180 827.13,-180 827.13,-144 916.63,-144 916.63,-180"/>
<text text-anchor="middle" x="871.88" y="-156.95" font-family="Times,serif" font-size="14.00">solana&#45;gossip</text>
</g>
<!-- 0&#45;&gt;11 -->
<g id="edge5" class="edge">
<title>0&#45;&gt;11</title>
<path fill="none" stroke="black" d="M584.55,-514.53C696.39,-499.09 950.88,-455.55 950.88,-379 950.88,-379 950.88,-379 950.88,-305 950.88,-259.63 919.7,-215.22 896.52,-188.48"/>
<polygon fill="black" stroke="black" points="899.31,-186.35 890.03,-181.23 894.09,-191.02 899.31,-186.35"/>
</g>
<!-- 12 -->
<g id="node7" class="node">
<title>12</title>
<polygon fill="none" stroke="black" points="767.25,-108 678.5,-108 678.5,-72 767.25,-72 767.25,-108"/>
<text text-anchor="middle" x="722.88" y="-84.95" font-family="Times,serif" font-size="14.00">solana&#45;ledger</text>
</g>
<!-- 0&#45;&gt;12 -->
<g id="edge6" class="edge">
<title>0&#45;&gt;12</title>
<path fill="none" stroke="black" d="M584.6,-520.79C652.88,-518.79 775.57,-509.11 870.88,-468 1000.54,-412.08 1050.76,-382.84 1103.88,-252 1109.89,-237.18 1112.27,-229.62 1103.88,-216 1099.21,-208.43 969.25,-146.99 960.88,-144 900.34,-122.4 827.9,-107.78 778.96,-99.45"/>
<polygon fill="black" stroke="black" points="779.6,-96.01 769.16,-97.82 778.45,-102.92 779.6,-96.01"/>
</g>
<!-- 17 -->
<g id="node8" class="node">
<title>17</title>
<polygon fill="none" stroke="black" points="684.5,-180 609.25,-180 609.25,-144 684.5,-144 684.5,-180"/>
<text text-anchor="middle" x="646.88" y="-156.95" font-family="Times,serif" font-size="14.00">solana&#45;poh</text>
</g>
<!-- 0&#45;&gt;17 -->
<g id="edge7" class="edge">
<title>0&#45;&gt;17</title>
<path fill="none" stroke="black" d="M567.53,-503.5C581.36,-494.74 596.07,-482.81 604.88,-468 658.08,-378.55 654.65,-248.73 649.95,-191.69"/>
<polygon fill="black" stroke="black" points="653.45,-191.51 649.06,-181.87 646.48,-192.14 653.45,-191.51"/>
</g>
<!-- 18 -->
<g id="node9" class="node">
<title>18</title>
<polygon fill="none" stroke="black" points="543,-252 470.75,-252 470.75,-216 543,-216 543,-252"/>
<text text-anchor="middle" x="506.88" y="-228.95" font-family="Times,serif" font-size="14.00">solana&#45;rpc</text>
</g>
<!-- 0&#45;&gt;18 -->
<g id="edge8" class="edge">
<title>0&#45;&gt;18</title>
<path fill="none" stroke="black" d="M495.31,-503.59C477.31,-494.33 456,-481.98 438.88,-468 373.23,-414.4 343.53,-403.39 313.88,-324 308.28,-309.01 304.18,-300.72 313.88,-288 331.45,-264.94 408.13,-249.43 459.38,-241.41"/>
<polygon fill="black" stroke="black" points="459.68,-244.91 469.04,-239.95 458.63,-237.99 459.68,-244.91"/>
</g>
<!-- 21 -->
<g id="node10" class="node">
<title>21</title>
<polygon fill="none" stroke="black" points="695.75,-36 598,-36 598,0 695.75,0 695.75,-36"/>
<text text-anchor="middle" x="646.88" y="-12.95" font-family="Times,serif" font-size="14.00">solana&#45;runtime</text>
</g>
<!-- 0&#45;&gt;21 -->
<g id="edge9" class="edge">
<title>0&#45;&gt;21</title>
<path fill="none" stroke="black" d="M584.82,-516.82C756.2,-502.33 1292.88,-451.19 1292.88,-379 1292.88,-379 1292.88,-379 1292.88,-161 1292.88,-41.78 867.88,-22.54 707.32,-19.52"/>
<polygon fill="black" stroke="black" points="707.8,-16.03 697.74,-19.36 707.68,-23.03 707.8,-16.03"/>
</g>
<!-- 23 -->
<g id="node11" class="node">
<title>23</title>
<polygon fill="none" stroke="black" points="377,-180 190.75,-180 190.75,-144 377,-144 377,-180"/>
<text text-anchor="middle" x="283.88" y="-156.95" font-family="Times,serif" font-size="14.00">solana&#45;send&#45;transaction&#45;service</text>
</g>
<!-- 0&#45;&gt;23 -->
<g id="edge10" class="edge">
<title>0&#45;&gt;23</title>
<path fill="none" stroke="black" d="M480.95,-508.52C452.42,-500.07 417.34,-486.93 389.88,-468 354.87,-443.87 348.36,-432.7 326.88,-396 292.58,-337.41 287.38,-318.91 275.88,-252 272.42,-231.88 274.63,-208.92 277.6,-191.36"/>
<polygon fill="black" stroke="black" points="281.01,-192.13 279.43,-181.66 274.13,-190.83 281.01,-192.13"/>
</g>
<!-- 27 -->
<g id="node12" class="node">
<title>27</title>
<polygon fill="none" stroke="black" points="596,-468 469.75,-468 469.75,-432 596,-432 596,-468"/>
<text text-anchor="middle" x="532.88" y="-444.95" font-family="Times,serif" font-size="14.00">solana&#45;test&#45;validator</text>
</g>
<!-- 0&#45;&gt;27 -->
<g id="edge11" class="edge">
<title>0&#45;&gt;27</title>
<path fill="none" stroke="black" d="M532.88,-503.7C532.88,-496.41 532.88,-487.73 532.88,-479.54"/>
<polygon fill="black" stroke="black" points="536.38,-479.62 532.88,-469.62 529.38,-479.62 536.38,-479.62"/>
</g>
<!-- 4&#45;&gt;10 -->
<g id="edge12" class="edge">
<title>4&#45;&gt;10</title>
<path fill="none" stroke="black" d="M679.32,-367.92C634.42,-357.62 559.81,-340.49 501.1,-327.02"/>
<polygon fill="black" stroke="black" points="501.97,-323.63 491.44,-324.8 500.4,-330.45 501.97,-323.63"/>
</g>
<!-- 4&#45;&gt;11 -->
<g id="edge13" class="edge">
<title>4&#45;&gt;11</title>
<path fill="none" stroke="black" d="M758.27,-372.51C789.35,-366.76 831.13,-353.68 853.88,-324 883.19,-285.76 881.33,-226.61 876.89,-191.65"/>
<polygon fill="black" stroke="black" points="880.38,-191.26 875.48,-181.87 873.45,-192.27 880.38,-191.26"/>
</g>
<!-- 4&#45;&gt;12 -->
<g id="edge14" class="edge">
<title>4&#45;&gt;12</title>
<path fill="none" stroke="black" d="M719.12,-359.54C719.79,-311.76 721.65,-178.51 722.48,-119.61"/>
<polygon fill="black" stroke="black" points="725.97,-119.79 722.61,-109.74 718.97,-119.69 725.97,-119.79"/>
</g>
<!-- 4&#45;&gt;17 -->
<g id="edge15" class="edge">
<title>4&#45;&gt;17</title>
<path fill="none" stroke="black" d="M713.11,-359.85C700.7,-322.99 671.41,-235.92 656.28,-190.96"/>
<polygon fill="black" stroke="black" points="659.66,-190.03 653.16,-181.67 653.03,-192.26 659.66,-190.03"/>
</g>
<!-- 4&#45;&gt;18 -->
<g id="edge16" class="edge">
<title>4&#45;&gt;18</title>
<path fill="none" stroke="black" d="M692.88,-359.59C655.03,-334.24 584.64,-287.09 542.15,-258.62"/>
<polygon fill="black" stroke="black" points="544.27,-255.83 534.01,-253.17 540.37,-261.65 544.27,-255.83"/>
</g>
<!-- 4&#45;&gt;21 -->
<g id="edge17" class="edge">
<title>4&#45;&gt;21</title>
<path fill="none" stroke="black" d="M758.34,-374.97C897.72,-366.23 1352.35,-323.68 1235.88,-144 1178.5,-55.48 845.5,-28.84 707.13,-21.53"/>
<polygon fill="black" stroke="black" points="707.61,-18.05 697.45,-21.04 707.26,-25.04 707.61,-18.05"/>
</g>
<!-- 4&#45;&gt;23 -->
<g id="edge18" class="edge">
<title>4&#45;&gt;23</title>
<path fill="none" stroke="black" d="M679.36,-377.5C587.97,-377.78 365.87,-373.26 313.88,-324 277.99,-290.01 277.01,-227.93 280.08,-191.6"/>
<polygon fill="black" stroke="black" points="283.54,-192.15 281.07,-181.84 276.57,-191.44 283.54,-192.15"/>
</g>
<!-- 45 -->
<g id="node13" class="node">
<title>45</title>
<polygon fill="none" stroke="black" points="844.5,-324 751.25,-324 751.25,-288 844.5,-288 844.5,-324"/>
<text text-anchor="middle" x="797.88" y="-300.95" font-family="Times,serif" font-size="14.00">solana&#45;turbine</text>
</g>
<!-- 4&#45;&gt;45 -->
<g id="edge19" class="edge">
<title>4&#45;&gt;45</title>
<path fill="none" stroke="black" d="M738.4,-359.7C747.9,-351.28 759.48,-341.02 769.9,-331.79"/>
<polygon fill="black" stroke="black" points="772,-334.6 777.17,-325.35 767.36,-329.36 772,-334.6"/>
</g>
<!-- 46 -->
<g id="node14" class="node">
<title>46</title>
<polygon fill="none" stroke="black" points="1226.88,-180 1048.88,-180 1048.88,-144 1226.88,-144 1226.88,-180"/>
<text text-anchor="middle" x="1137.88" y="-156.95" font-family="Times,serif" font-size="14.00">solana&#45;unified&#45;scheduler&#45;pool</text>
</g>
<!-- 4&#45;&gt;46 -->
<g id="edge20" class="edge">
<title>4&#45;&gt;46</title>
<path fill="none" stroke="black" d="M758.46,-375.89C836.14,-371.51 1009.18,-350.56 1103.88,-252 1119.82,-235.41 1128.48,-210.56 1133.06,-191.34"/>
<polygon fill="black" stroke="black" points="1136.45,-192.21 1135.1,-181.7 1129.6,-190.76 1136.45,-192.21"/>
</g>
<!-- 48 -->
<g id="node15" class="node">
<title>48</title>
<polygon fill="none" stroke="black" points="1094.75,-252 979,-252 979,-216 1094.75,-216 1094.75,-252"/>
<text text-anchor="middle" x="1036.88" y="-228.95" font-family="Times,serif" font-size="14.00">solana&#45;wen&#45;restart</text>
</g>
<!-- 4&#45;&gt;48 -->
<g id="edge21" class="edge">
<title>4&#45;&gt;48</title>
<path fill="none" stroke="black" d="M758.33,-367.57C793.43,-358.51 845.72,-343.37 888.88,-324 929.92,-305.58 973.69,-278.18 1002.89,-258.65"/>
<polygon fill="black" stroke="black" points="1004.63,-261.7 1010.96,-253.21 1000.71,-255.9 1004.63,-261.7"/>
</g>
<!-- 5&#45;&gt;21 -->
<g id="edge22" class="edge">
<title>5&#45;&gt;21</title>
<path fill="none" stroke="black" d="M62.17,-359.68C48.98,-350.6 34.34,-338.37 24.88,-324 2.34,-289.79 0.88,-275.97 0.88,-235 0.88,-235 0.88,-235 0.88,-161 0.88,-120.03 -6.56,-98.27 24.88,-72 67.37,-36.48 438.62,-23.89 586.48,-20.26"/>
<polygon fill="black" stroke="black" points="586.15,-23.77 596.06,-20.03 585.98,-16.77 586.15,-23.77"/>
</g>
<!-- 8&#45;&gt;5 -->
<g id="edge23" class="edge">
<title>8&#45;&gt;5</title>
<path fill="none" stroke="black" d="M91.88,-431.7C91.88,-424.41 91.88,-415.73 91.88,-407.54"/>
<polygon fill="black" stroke="black" points="95.38,-407.62 91.88,-397.62 88.38,-407.62 95.38,-407.62"/>
</g>
<!-- 10&#45;&gt;12 -->
<g id="edge24" class="edge">
<title>10&#45;&gt;12</title>
<path fill="none" stroke="black" d="M420.31,-287.63C433.87,-253.7 468.82,-178.89 524.88,-144 568.23,-117.01 625.2,-103.63 666.89,-97.08"/>
<polygon fill="black" stroke="black" points="667.35,-100.55 676.73,-95.62 666.32,-93.62 667.35,-100.55"/>
</g>
<!-- 10&#45;&gt;18 -->
<g id="edge25" class="edge">
<title>10&#45;&gt;18</title>
<path fill="none" stroke="black" d="M436.87,-287.7C448.27,-279.11 462.23,-268.61 474.67,-259.24"/>
<polygon fill="black" stroke="black" points="476.74,-262.07 482.62,-253.26 472.53,-256.47 476.74,-262.07"/>
</g>
<!-- 10&#45;&gt;21 -->
<g id="edge26" class="edge">
<title>10&#45;&gt;21</title>
<path fill="none" stroke="black" d="M415.9,-287.71C418.47,-269.36 423.83,-239.78 433.88,-216 465.32,-141.56 481.12,-121.65 544.88,-72 560,-60.22 578.14,-49.82 594.9,-41.42"/>
<polygon fill="black" stroke="black" points="596.29,-44.63 603.75,-37.12 593.23,-38.34 596.29,-44.63"/>
</g>
<!-- 11&#45;&gt;12 -->
<g id="edge27" class="edge">
<title>11&#45;&gt;12</title>
<path fill="none" stroke="black" d="M834.66,-143.52C815.12,-134.34 790.97,-122.99 770.12,-113.2"/>
<polygon fill="black" stroke="black" points="771.78,-110.11 761.24,-109.03 768.81,-116.45 771.78,-110.11"/>
</g>
<!-- 11&#45;&gt;21 -->
<g id="edge28" class="edge">
<title>11&#45;&gt;21</title>
<path fill="none" stroke="black" d="M864.73,-143.69C855.58,-123.63 837.87,-90.89 812.88,-72 782.09,-48.73 740.76,-35.49 707.04,-28.06"/>
<polygon fill="black" stroke="black" points="707.91,-24.67 697.41,-26.07 706.49,-31.52 707.91,-24.67"/>
</g>
<!-- 12&#45;&gt;21 -->
<g id="edge29" class="edge">
<title>12&#45;&gt;21</title>
<path fill="none" stroke="black" d="M704.09,-71.7C695.05,-63.37 684.03,-53.22 674.09,-44.07"/>
<polygon fill="black" stroke="black" points="676.55,-41.57 666.82,-37.37 671.81,-46.72 676.55,-41.57"/>
</g>
<!-- 17&#45;&gt;12 -->
<g id="edge30" class="edge">
<title>17&#45;&gt;12</title>
<path fill="none" stroke="black" d="M665.66,-143.7C674.71,-135.37 685.72,-125.22 695.66,-116.07"/>
<polygon fill="black" stroke="black" points="697.94,-118.72 702.93,-109.37 693.2,-113.57 697.94,-118.72"/>
</g>
<!-- 17&#45;&gt;21 -->
<g id="edge31" class="edge">
<title>17&#45;&gt;21</title>
<path fill="none" stroke="black" d="M646.88,-143.59C646.88,-119.61 646.88,-76.14 646.88,-47.42"/>
<polygon fill="black" stroke="black" points="650.38,-47.62 646.88,-37.62 643.38,-47.62 650.38,-47.62"/>
</g>
<!-- 18&#45;&gt;11 -->
<g id="edge32" class="edge">
<title>18&#45;&gt;11</title>
<path fill="none" stroke="black" d="M543.21,-226.03C607.01,-213.8 739.6,-188.37 815.43,-173.83"/>
<polygon fill="black" stroke="black" points="815.99,-177.28 825.15,-171.96 814.67,-170.41 815.99,-177.28"/>
</g>
<!-- 18&#45;&gt;12 -->
<g id="edge33" class="edge">
<title>18&#45;&gt;12</title>
<path fill="none" stroke="black" d="M512.23,-215.71C519.31,-195.65 533.66,-162.93 556.88,-144 588.3,-118.38 632.3,-105.06 667.11,-98.19"/>
<polygon fill="black" stroke="black" points="667.37,-101.7 676.58,-96.44 666.11,-94.81 667.37,-101.7"/>
</g>
<!-- 18&#45;&gt;17 -->
<g id="edge34" class="edge">
<title>18&#45;&gt;17</title>
<path fill="none" stroke="black" d="M541.84,-215.52C560.1,-206.39 582.65,-195.11 602.17,-185.35"/>
<polygon fill="black" stroke="black" points="603.62,-188.54 611,-180.94 600.49,-182.28 603.62,-188.54"/>
</g>
<!-- 18&#45;&gt;21 -->
<g id="edge35" class="edge">
<title>18&#45;&gt;21</title>
<path fill="none" stroke="black" d="M507.5,-215.63C508.8,-196.95 512.79,-166.85 524.88,-144 546.62,-102.88 586.11,-66.16 614.27,-43.33"/>
<polygon fill="black" stroke="black" points="616.14,-46.31 621.8,-37.35 611.79,-40.83 616.14,-46.31"/>
</g>
<!-- 18&#45;&gt;23 -->
<g id="edge36" class="edge">
<title>18&#45;&gt;23</title>
<path fill="none" stroke="black" d="M470.55,-221.6C438.06,-211.4 389.63,-196.2 350.24,-183.83"/>
<polygon fill="black" stroke="black" points="351.43,-180.54 340.84,-180.88 349.33,-187.21 351.43,-180.54"/>
</g>
<!-- 23&#45;&gt;21 -->
<g id="edge37" class="edge">
<title>23&#45;&gt;21</title>
<path fill="none" stroke="black" d="M299.46,-143.65C318.83,-123.23 353.87,-89.83 390.88,-72 453.54,-41.81 532.92,-28.77 586.55,-23.17"/>
<polygon fill="black" stroke="black" points="586.8,-26.66 596.41,-22.2 586.12,-19.69 586.8,-26.66"/>
</g>
<!-- 27&#45;&gt;4 -->
<g id="edge38" class="edge">
<title>27&#45;&gt;4</title>
<path fill="none" stroke="black" d="M579.33,-431.52C606.5,-421.29 640.81,-408.38 668.61,-397.92"/>
<polygon fill="black" stroke="black" points="669.76,-401.23 677.88,-394.43 667.29,-394.67 669.76,-401.23"/>
</g>
<!-- 27&#45;&gt;10 -->
<g id="edge39" class="edge">
<title>27&#45;&gt;10</title>
<path fill="none" stroke="black" d="M518.28,-431.59C497.56,-406.86 459.47,-361.41 435.47,-332.77"/>
<polygon fill="black" stroke="black" points="438.29,-330.69 429.19,-325.27 432.93,-335.18 438.29,-330.69"/>
</g>
<!-- 27&#45;&gt;11 -->
<g id="edge40" class="edge">
<title>27&#45;&gt;11</title>
<path fill="none" stroke="black" d="M596.48,-446.57C676.98,-439.68 812.75,-414.43 875.88,-324 903.69,-284.16 901.99,-263.73 892.88,-216 891.26,-207.54 888.32,-198.71 885.14,-190.74"/>
<polygon fill="black" stroke="black" points="888.36,-189.36 881.19,-181.56 881.92,-192.13 888.36,-189.36"/>
</g>
<!-- 27&#45;&gt;12 -->
<g id="edge41" class="edge">
<title>27&#45;&gt;12</title>
<path fill="none" stroke="black" d="M540.57,-431.91C551.67,-405.62 570.88,-353.45 570.88,-307 570.88,-307 570.88,-307 570.88,-233 570.88,-191.4 571.84,-174.74 599.88,-144 617.6,-124.57 643.66,-111.97 667.25,-103.95"/>
<polygon fill="black" stroke="black" points="668.3,-107.28 676.78,-100.93 666.19,-100.61 668.3,-107.28"/>
</g>
<!-- 27&#45;&gt;18 -->
<g id="edge43" class="edge">
<title>27&#45;&gt;18</title>
<path fill="none" stroke="black" d="M530.9,-431.6C527.53,-402.06 520.41,-340.23 513.88,-288 512.88,-280.05 511.76,-271.43 510.72,-263.51"/>
<polygon fill="black" stroke="black" points="514.2,-263.13 509.41,-253.68 507.26,-264.05 514.2,-263.13"/>
</g>
<!-- 27&#45;&gt;21 -->
<g id="edge44" class="edge">
<title>27&#45;&gt;21</title>
<path fill="none" stroke="black" d="M469.44,-434.83C424.48,-424.58 362.81,-410.11 308.88,-396 294.84,-392.33 67.77,-334.61 57.88,-324 30.28,-294.43 38.88,-275.45 38.88,-235 38.88,-235 38.88,-235 38.88,-161 38.88,-94.96 96.42,-96.19 157.88,-72 234.5,-41.83 473.24,-27.04 586.32,-21.58"/>
<polygon fill="black" stroke="black" points="586.18,-25.09 596,-21.12 585.85,-18.09 586.18,-25.09"/>
</g>
<!-- 61 -->
<g id="node16" class="node">
<title>61</title>
<polygon fill="none" stroke="black" points="191.25,-324 66.5,-324 66.5,-288 191.25,-288 191.25,-324"/>
<text text-anchor="middle" x="128.88" y="-300.95" font-family="Times,serif" font-size="14.00">solana&#45;program&#45;test</text>
</g>
<!-- 27&#45;&gt;61 -->
<g id="edge42" class="edge">
<title>27&#45;&gt;61</title>
<path fill="none" stroke="black" d="M492.42,-431.62C447.88,-412.8 373.95,-382.45 308.88,-360 274.15,-348.02 235.1,-336.31 202.27,-326.96"/>
<polygon fill="black" stroke="black" points="203.42,-323.65 192.84,-324.29 201.51,-330.38 203.42,-323.65"/>
</g>
<!-- 45&#45;&gt;11 -->
<g id="edge45" class="edge">
<title>45&#45;&gt;11</title>
<path fill="none" stroke="black" d="M806.95,-287.59C819.61,-263.29 842.71,-218.97 857.66,-190.27"/>
<polygon fill="black" stroke="black" points="860.74,-191.94 862.26,-181.45 854.53,-188.7 860.74,-191.94"/>
</g>
<!-- 45&#45;&gt;12 -->
<g id="edge46" class="edge">
<title>45&#45;&gt;12</title>
<path fill="none" stroke="black" d="M791.87,-287.85C778.95,-250.99 748.43,-163.92 732.67,-118.96"/>
<polygon fill="black" stroke="black" points="736.03,-117.94 729.42,-109.66 729.42,-120.26 736.03,-117.94"/>
</g>
<!-- 45&#45;&gt;17 -->
<g id="edge47" class="edge">
<title>45&#45;&gt;17</title>
<path fill="none" stroke="black" d="M779.36,-287.59C752.73,-262.54 703.47,-216.22 673.1,-187.66"/>
<polygon fill="black" stroke="black" points="675.86,-185.45 666.17,-181.15 671.06,-190.55 675.86,-185.45"/>
</g>
<!-- 45&#45;&gt;18 -->
<g id="edge48" class="edge">
<title>45&#45;&gt;18</title>
<path fill="none" stroke="black" d="M750.8,-293.68C696.74,-280.67 608.54,-259.46 554.32,-246.41"/>
<polygon fill="black" stroke="black" points="555.31,-243.05 544.77,-244.11 553.67,-249.86 555.31,-243.05"/>
</g>
<!-- 45&#45;&gt;21 -->
<g id="edge49" class="edge">
<title>45&#45;&gt;21</title>
<path fill="none" stroke="black" d="M801.75,-287.7C810.04,-245.95 824.97,-138.28 775.88,-72 759.56,-49.97 732.43,-37.06 707.26,-29.51"/>
<polygon fill="black" stroke="black" points="708.28,-26.16 697.71,-26.9 706.43,-32.91 708.28,-26.16"/>
</g>
<!-- 46&#45;&gt;12 -->
<g id="edge50" class="edge">
<title>46&#45;&gt;12</title>
<path fill="none" stroke="black" d="M1048.59,-145.94C966.68,-132.12 847.88,-112.08 778.69,-100.41"/>
<polygon fill="black" stroke="black" points="779.54,-97.01 769.1,-98.8 778.38,-103.91 779.54,-97.01"/>
</g>
<!-- 46&#45;&gt;21 -->
<g id="edge51" class="edge">
<title>46&#45;&gt;21</title>
<path fill="none" stroke="black" d="M1123.53,-143.58C1105.29,-122.76 1071.71,-88.63 1034.88,-72 977.7,-46.18 801.31,-30.04 707.31,-23.05"/>
<polygon fill="black" stroke="black" points="707.73,-19.57 697.5,-22.33 707.22,-26.55 707.73,-19.57"/>
</g>
<!-- 48&#45;&gt;11 -->
<g id="edge52" class="edge">
<title>48&#45;&gt;11</title>
<path fill="none" stroke="black" d="M995.67,-215.52C973.73,-206.21 946.55,-194.68 923.25,-184.79"/>
<polygon fill="black" stroke="black" points="924.81,-181.66 914.24,-180.97 922.08,-188.1 924.81,-181.66"/>
</g>
<!-- 48&#45;&gt;12 -->
<g id="edge53" class="edge">
<title>48&#45;&gt;12</title>
<path fill="none" stroke="black" d="M1014.05,-215.53C1000.78,-205.29 983.78,-192.04 968.88,-180 949.49,-164.34 948.03,-155.43 925.88,-144 879.32,-119.99 821.01,-106.23 778.84,-98.78"/>
<polygon fill="black" stroke="black" points="779.61,-95.36 769.16,-97.14 778.44,-102.26 779.61,-95.36"/>
</g>
<!-- 48&#45;&gt;21 -->
<g id="edge54" class="edge">
<title>48&#45;&gt;21</title>
<path fill="none" stroke="black" d="M1024.83,-215.83C1010.91,-196.77 986.58,-165.83 960.88,-144 913.76,-103.98 898.7,-96.34 841.88,-72 798.44,-53.39 746.72,-39.69 707.47,-30.89"/>
<polygon fill="black" stroke="black" points="708.22,-27.47 697.71,-28.75 706.72,-34.31 708.22,-27.47"/>
</g>
<!-- 61&#45;&gt;21 -->
<g id="edge56" class="edge">
<title>61&#45;&gt;21</title>
<path fill="none" stroke="black" d="M114.55,-287.57C107.43,-277.76 99.57,-264.92 95.88,-252 91.48,-236.62 90.43,-231.04 95.88,-216 124.24,-137.67 142.73,-111.88 215.88,-72 278.33,-37.94 482.94,-25.3 586.17,-21"/>
<polygon fill="black" stroke="black" points="586.27,-24.5 596.12,-20.6 585.99,-17.51 586.27,-24.5"/>
</g>
<!-- 69 -->
<g id="node17" class="node">
<title>69</title>
<polygon fill="none" stroke="black" points="228.88,-252 104.88,-252 104.88,-216 228.88,-216 228.88,-252"/>
<text text-anchor="middle" x="166.88" y="-228.95" font-family="Times,serif" font-size="14.00">solana&#45;banks&#45;server</text>
</g>
<!-- 61&#45;&gt;69 -->
<g id="edge55" class="edge">
<title>61&#45;&gt;69</title>
<path fill="none" stroke="black" d="M138.27,-287.7C142.46,-279.98 147.49,-270.71 152.16,-262.11"/>
<polygon fill="black" stroke="black" points="155.17,-263.89 156.87,-253.43 149.02,-260.55 155.17,-263.89"/>
</g>
<!-- 69&#45;&gt;21 -->
<g id="edge57" class="edge">
<title>69&#45;&gt;21</title>
<path fill="none" stroke="black" d="M165.33,-215.78C164.52,-196.38 166.09,-164.87 181.88,-144 226.98,-84.39 262.58,-94.45 333.88,-72 419.42,-45.06 522.68,-30.96 586.57,-24.25"/>
<polygon fill="black" stroke="black" points="586.54,-27.77 596.14,-23.28 585.83,-20.81 586.54,-27.77"/>
</g>
<!-- 69&#45;&gt;23 -->
<g id="edge58" class="edge">
<title>69&#45;&gt;23</title>
<path fill="none" stroke="black" d="M196.1,-215.52C211.01,-206.6 229.34,-195.63 245.38,-186.03"/>
<polygon fill="black" stroke="black" points="246.94,-189.18 253.73,-181.04 243.35,-183.17 246.94,-189.18"/>
</g>
</g>
</svg>
